<svg xmlns="http://www.w3.org/2000/svg" viewBox="0 0 600 115.15443">
  <path d="M61.31925 95.3931 0 67.425V56.7893l61.31925-29.34681v15.62512L17.59468 61.77868v.39418L61.31925 79.768Z" style="fill:#333"/>
  <path d="M139.31477 5.38356 93.42354 115.15443h-18.514L120.60369 5.38356Z" style="fill:#3465a4"/>
  <path d="M215.99725 66.57187 154.678 94.53994V78.97962l43.856-17.52852v-.26279l-43.856-18.77678V26.78642l61.31926 29.14972ZM343.1666 99.52932h-20.68109V61.3197q0-14.77239-10.76623-14.77195a11.021 11.021 0 0 0-8.9294 4.13622 15.95327 15.95327 0 0 0-3.41355 10.50434v38.341H278.63V0h20.74634v42.28014h.26279q7.615-11.62029 20.68019-11.62029 22.84775 0 22.84729 27.57389Zm57.05209-.78746q-4.59654 2.42718-13.85309 2.429-21.92844 0-21.92754-22.7816V47.598h-10.89852V32.30138h10.89852V17.79132l20.68019-5.90824v20.4183h15.10044V47.598h-15.10044v27.1806q0 10.50388 8.33814 10.50434a14.05481 14.05481 0 0 0 6.7623-1.90432Zm118.43749.78746H497.976v-38.341q0-14.6401-10.76713-14.64056a9.89219 9.89219 0 0 0-8.33813 4.399 18.07576 18.07576 0 0 0-3.21646 10.96332v37.61924h-20.7468V60.79413q0-14.24593-10.57-14.24638a10.133 10.133 0 0 0-8.50193 4.20192q-3.18585 4.20235-3.18406 11.42319v37.35646h-20.74681V32.30138h20.74678v10.50434h.26279a25.472 25.472 0 0 1 21.73045-12.14587q14.24592 0 19.49944 12.53915 7.68115-12.53824 22.5845-12.53915 21.92709 0 21.92754 27.04831Z" style="fill:#333"/>
  <path d="m600 32.30138-22.19122 32.56327 22.05983 34.66467h-23.89755l-9.71688-18.1198q-1.18119-2.16666-2.82317-6.10623h-.26279a42.64246 42.64246 0 0 1-2.69178 5.90914l-9.78167 18.31689h-23.83185l22.7159-33.483-21.33716-33.74494h24.02894l9.58458 18.84162a41.29151 41.29151 0 0 1 2.69178 6.30332h.26279a44.343 44.343 0 0 1 2.82317-6.43471l9.78257-18.71018Z" style="fill:#3465a4"/>
</svg>
